<?xml version="1.0" encoding="UTF-8" standalone="no"?>
<svg
   version="1.1"
   width="282.29501"
   height="88.027"
   viewBox="0 0 282.29502 88.027"
   id="svg18"
   sodipodi:docname="Trimp Studio Logo (Black).svg"
   inkscape:export-filename="Champ Logo.png"
   inkscape:export-xdpi="1134.1951"
   inkscape:export-ydpi="1134.1951"
   inkscape:version="1.2.2 (732a01da63, 2022-12-09)"
   xmlns:inkscape="http://www.inkscape.org/namespaces/inkscape"
   xmlns:sodipodi="http://sodipodi.sourceforge.net/DTD/sodipodi-0.dtd"
   xmlns="http://www.w3.org/2000/svg"
   xmlns:svg="http://www.w3.org/2000/svg">
  <defs
     id="defs22" />
  <sodipodi:namedview
     id="namedview20"
     pagecolor="#505050"
     bordercolor="#eeeeee"
     borderopacity="1"
     inkscape:showpageshadow="0"
     inkscape:pageopacity="0"
     inkscape:pagecheckerboard="0"
     inkscape:deskcolor="#505050"
     showgrid="false"
     inkscape:zoom="2.2317063"
     inkscape:cx="6.2732269"
     inkscape:cy="0.22404382"
     inkscape:window-width="1920"
     inkscape:window-height="991"
     inkscape:window-x="-9"
     inkscape:window-y="-9"
     inkscape:window-maximized="1"
     inkscape:current-layer="svg18"
     showguides="true" />
  <g
     aria-label="studio"
     id="text479"
     style="font-weight:600;font-size:29.3333px;line-height:1;font-family:'LT Superior';-inkscape-font-specification:'LT Superior Semi-Bold';text-align:center;text-anchor:middle;fill:#000000;stroke-width:0;stroke-linecap:round;stroke-linejoin:round"
     transform="translate(-80)">
    <path
       d="m 186.6684,72.539016 c -3.608,0 -6.18933,1.789332 -6.18933,4.253329 0,3.197329 3.432,3.959995 6.424,4.605328 2.28799,0.498666 3.84266,0.997332 3.84266,2.141331 0,1.055998 -1.34933,1.906664 -3.432,1.906664 -2.31733,0 -4.07733,-1.026665 -4.63466,-2.727997 l -2.96266,0.528 c 0.792,2.75733 3.72533,4.781327 7.59732,4.781327 3.98933,0 6.48266,-2.170664 6.48266,-4.458661 0,-3.19733 -3.344,-4.018662 -6.39466,-4.722661 -2.17066,-0.498666 -3.87199,-0.879999 -3.87199,-2.053331 0,-0.997332 1.26133,-1.671998 3.13866,-1.671998 1.81866,0 3.28533,0.762665 3.81333,2.111997 l 2.96266,-0.527999 c -0.73333,-2.405331 -3.344,-4.165329 -6.77599,-4.165329 z"
       style="font-family:'LT Superior Mono';-inkscape-font-specification:'LT Superior Mono Semi-Bold';fill:#000000"
       id="path531" />
    <path
       d="m 201.62839,82.659005 c 0,2.786663 1.584,5.367993 6.13066,5.367993 0.90933,0 1.81867,-0.05867 2.93333,-0.205333 v -2.551997 c -1.056,0.205333 -2.024,0.264 -2.72799,0.264 -2.816,0 -3.28533,-1.378665 -3.28533,-2.962663 V 75.23768 h 5.10399 v -2.405331 h -5.10399 V 68.93102 h -2.22934 l -0.82133,3.901329 -3.60799,0.322667 v 2.023997 h 3.60799 z"
       style="font-family:'LT Superior Mono';-inkscape-font-specification:'LT Superior Mono Semi-Bold';fill:#000000"
       id="path533" />
    <path
       d="m 228.93771,87.733665 c -0.176,-1.143998 -0.20534,-2.14133 -0.20534,-4.341328 V 72.832349 h -3.07999 v 8.653324 c 0,2.40533 -1.76,3.930662 -4.312,3.930662 -1.936,0 -3.19733,-1.261332 -3.19733,-3.255996 v -9.32799 h -3.08 v 9.591989 c 0,3.343996 2.25867,5.573327 5.632,5.573327 2.05333,0 3.78399,-0.909332 5.01599,-2.199997 0.088,0.674666 0.29334,1.407998 0.44,1.935997 z"
       style="font-family:'LT Superior Mono';-inkscape-font-specification:'LT Superior Mono Semi-Bold';fill:#000000"
       id="path535" />
    <path
       d="m 243.4577,74.768347 c -1.08533,-1.378665 -2.904,-2.229331 -4.81066,-2.229331 -3.84266,0 -6.54133,3.19733 -6.54133,7.714658 0,4.546662 2.69867,7.773324 6.54133,7.773324 2.024,0 3.93066,-1.055998 4.95733,-2.463997 0.088,0.645333 0.264,1.730665 0.38133,2.170664 h 2.75733 c -0.14667,-0.997332 -0.20533,-2.40533 -0.20533,-4.341328 V 67.171022 h -3.08 z m 0,5.895993 c 0,2.727997 -1.55466,4.810661 -3.98933,4.810661 -2.64,0 -4.28266,-2.023997 -4.28266,-5.221327 0,-3.138663 1.64266,-5.133327 4.28266,-5.133327 2.52266,0 3.98933,2.023997 3.98933,4.605328 z"
       style="font-family:'LT Superior Mono';-inkscape-font-specification:'LT Superior Mono Semi-Bold';fill:#000000"
       id="path537" />
    <path
       d="m 251.05504,75.23768 h 4.63466 v 10.090655 h -4.63466 v 2.40533 h 12.29065 v -2.40533 h -4.576 V 72.832349 h -7.71465 z m 4.51732,-8.301324 v 3.402663 h 3.37333 v -3.402663 z"
       style="font-family:'LT Superior Mono';-inkscape-font-specification:'LT Superior Mono Semi-Bold';fill:#000000"
       id="path539" />
    <path
       d="m 282.29501,80.253674 c 0,-4.546661 -3.10933,-7.714658 -7.47999,-7.714658 -4.37066,0 -7.47999,3.167997 -7.47999,7.714658 0,4.517328 3.10933,7.714658 7.47999,7.714658 4.37066,0 7.47999,-3.19733 7.47999,-7.714658 z m -11.85065,0 c 0,-3.138663 1.73066,-5.133327 4.37066,-5.133327 2.66933,0 4.39999,1.994664 4.39999,5.133327 0,3.167996 -1.73066,5.191994 -4.39999,5.191994 -2.64,0 -4.37066,-2.023998 -4.37066,-5.191994 z"
       style="font-family:'LT Superior Mono';-inkscape-font-specification:'LT Superior Mono Semi-Bold';fill:#000000"
       id="path541" />
  </g>
  <g
     id="g782">
    <path
       d="m 282.295,44.01333 c 1.9e-4,24.30795 -19.705,44.01361 -44.01281,44.01385 -7.80762,-0.003 -15.47394,-2.0827 -22.2126,-6.02599 V 60.01545 c 2.62467,3.55602 7.78941,6.09627 12.78475,6.09627 10.66799,0 18.20302,-9.31356 18.20302,-22.52162 0,-13.29274 -7.53503,-22.6906 -18.20302,-22.6906 -5.67267,0 -11.34538,2.87863 -13.80071,6.85798 -0.16934,-1.94734 -0.76223,-5.92694 -0.76223,-6.09627 h -10.83706 c 0.42333,2.70935 0.76171,8.04372 0.76171,13.12375 V 71.8566 c -2.73281,-3.34675 -4.95792,-7.07767 -6.60373,-11.07271 V 32.83727 c 0,-1.54552 -0.18127,-2.97113 -0.52607,-4.26072 C 203.52063,11.39626 219.93661,0.00892 238.28219,0 262.5898,2.4e-4 282.29491,19.70559 282.295,44.01333 Z M 235.11959,43.5901 c 0,8.04337 -3.89452,13.12323 -9.90586,13.12323 -5.67266,0 -9.14414,-4.57201 -9.14414,-11.68404 v -2.62465 c 0,-7.53537 3.55615,-12.27677 9.14414,-12.27677 6.01134,0 9.90586,5.16485 9.90586,13.46223 z"
       fill="#a26991"
       stroke-linecap="round"
       stroke-linejoin="round"
       id="path4"
       style="mix-blend-mode:normal;fill:#ffcc33;fill-opacity:1" />
    <path
       d="m 151.44553,45.78995 c -0.003,-17.51057 -0.068,-20.72448 -0.47403,-23.43189 l -0.1264,-0.84287 h 4.78479 4.78479 l 0.18519,0.70158 c 0.10186,0.38587 0.24223,1.14358 0.31195,1.6838 0.0697,0.54022 0.17905,0.98103 0.24297,0.97958 0.0639,-0.001 0.57926,-0.46998 1.1452,-1.04118 1.38936,-1.40225 3.4953,-2.44208 5.54086,-2.73586 2.89436,-0.41568 5.66991,0.47165 7.84773,2.50889 0.65716,0.61474 1.37921,1.41603 1.60454,1.78063 l 0.4097,0.66291 0.37493,-0.5396 c 0.82846,-1.19236 2.86365,-3.00725 3.94577,-3.51866 3.04619,-1.43964 7.52677,-1.30573 10.37286,0.31001 2.12931,1.20882 4.40283,4.35839 4.4058,6.10346 5.3e-4,0.37485 -0.31238,1.67927 -0.6956,2.89871 -1.44724,4.60535 -2.11544,10.26204 -1.80258,15.25988 0.26859,4.29072 0.98715,7.91138 2.34431,11.81248 0.79149,2.27511 0.82435,2.45642 0.82435,4.54732 v 2.17772 h -5.03817 -5.03817 l -0.0732,-15.66868 c -0.0684,-14.64009 -0.0961,-15.74113 -0.42139,-16.77229 -0.69527,-2.2037 -2.19755,-3.07205 -4.40048,-2.54358 -1.22246,0.29326 -1.89326,0.86814 -2.44971,2.09939 l -0.44584,0.98653 -0.0546,15.94931 -0.0546,15.94931 h -5.03197 -5.03197 l -0.065,-15.66868 c -0.0648,-15.61534 -0.0664,-15.67292 -0.48138,-16.91399 -0.51729,-1.54713 -1.30867,-2.31804 -2.57442,-2.50785 -1.61675,-0.24245 -3.08947,0.53486 -3.85448,2.0344 -0.84134,1.64917 -0.8921,2.68365 -0.89903,18.32288 l -0.006,14.73323 h -5.05139 -5.0514 z"
       fill="#ffffff"
       stroke-linecap="round"
       stroke-linejoin="round"
       id="path12"
       style="mix-blend-mode:normal;fill:#000000" />
    <path
       d="M 9.73667,30.127684 H 0 v -7.45067 l 9.73667,-1.10067 3.302,-11.59934 h 8.29734 v 11.59934 h 13.80067 v 8.89 H 21.33601 v 20.74334 c 0,3.38667 1.60867,5.75734 8.636,5.75734 1.86267,0 4.318,-0.16933 7.62,-0.762 v 9.22867 c -2.96334,0.42333 -6.096,0.67733 -8.89,0.67733 -13.54667,0 -18.96534,-6.77334 -18.96534,-14.73201 z"
       fill="#a26991"
       id="path276"
       style="mix-blend-mode:normal" />
    <path
       d="m 48.85271,56.374364 h 9.82134 v -21.59001 c 0,-1.69333 0,-3.13267 0,-4.318 h -9.82134 v -8.89 h 17.10267 c 1.35467,3.13267 2.54,6.77334 3.048,9.652 3.47133,-6.858 8.80534,-10.32934 20.23534,-10.32934 l 1.10066,9.906 c -1.43933,-0.16933 -2.794,-0.16933 -4.064,-0.16933 -11.00667,0 -16.34067,4.74133 -16.34067,12.27667 v 13.46201 h 13.37734 v 8.89 H 48.8527 Z"
       fill="#a26991"
       id="path278"
       style="mix-blend-mode:normal" />
    <path
       d="m 101.43075,21.576344 h 24.89201 v 34.79801 h 12.95401 v 8.89 h -37.84602 v -8.89 h 13.03868 V 30.466344 H 101.43075 Z M 127.33877,5.151 v 11.684014 h -13.462 V 5.151 Z"
       fill="#a26991"
       id="path280"
       style="mix-blend-mode:normal" />
  </g>
</svg>
