<svg version="1.1" xmlns="http://www.w3.org/2000/svg" xmlns:xlink="http://www.w3.org/1999/xlink" width="176" height="176" viewBox="0,0,176,176"><g transform="translate(-152,-92)"><g data-paper-data="{&quot;isPaintingLayer&quot;:true}" fill-rule="nonzero" stroke="none" stroke-width="0" stroke-miterlimit="10" stroke-dasharray="" stroke-dashoffset="0" style="mix-blend-mode: normal"><path d="M152,268v-176h176v176z" fill="#ffb400" stroke-linecap="butt" stroke-linejoin="miter"/><path d="M224.013,223.30258h-17.87089v-69.60907l-20.87023,16.6212v-17.99588l20.87023,-16.74616h17.87089z" fill="#ffffff" stroke-linecap="round" stroke-linejoin="round"/><path d="M294.72812,192.93453c0,18.49577 -13.37193,31.4928 -32.49257,31.4928c-17.62096,0 -31.36781,-10.74754 -34.61708,-25.36919l15.24651,-5.37377c2.99931,9.99771 9.6228,16.74616 18.87068,16.74616c9.49783,0 14.8716,-7.12337 14.8716,-17.24605c0,-9.6228 -4.87389,-16.6212 -14.8716,-16.6212c-7.12337,0 -12.37217,3.49919 -18.24582,9.6228l-12.37217,-4.49897l7.8732,-46.11443h51.36324v13.87182h-36.36667l-3.87411,18.24582c4.374,-3.1243 8.87296,-5.12384 15.62143,-5.12384c16.99611,0 28.99336,12.49714 28.99336,30.36805z" fill="#ffffff" stroke-linecap="round" stroke-linejoin="round"/></g></g></svg>