<svg version="1.1" xmlns="http://www.w3.org/2000/svg" xmlns:xlink="http://www.w3.org/1999/xlink" width="176" height="176" viewBox="0,0,176,176"><g transform="translate(-152,-92)"><g data-paper-data="{&quot;isPaintingLayer&quot;:true}" fill-rule="nonzero" stroke="none" stroke-width="0" stroke-miterlimit="10" stroke-dasharray="" stroke-dashoffset="0" style="mix-blend-mode: normal"><path d="M152,268v-176h176v176z" fill="#daff00" stroke-linecap="butt" stroke-linejoin="miter"/><path d="M184.14022,223.73999h-17.99588v-87.72991h34.11719c41.86541,0 41.86541,56.73702 0,56.73702h-16.1213zM199.51169,178.75029c20.24536,0 20.24536,-28.74342 0,-28.74342h-15.37148v28.74342z" fill="#ffffff" stroke-linecap="round" stroke-linejoin="round"/><path d="M274.48968,135.0103c17.62097,0 33.36736,10.87251 38.24124,26.244l-16.49622,5.37377c-2.12451,-10.12268 -11.24742,-17.24606 -21.74501,-17.24606c-14.62165,0 -24.49439,11.49737 -24.49439,30.61799c0,18.12086 9.74777,30.86794 23.6196,30.86794c13.122,0 22.2449,-8.12314 22.2449,-19.74548v-1.24972h-23.86953v-13.9968h41.86541v47.86403h-15.12155l-1.12474,-10.8725c-4.99885,6.62349 -13.49691,12.12222 -25.86908,12.12222c-23.36965,0 -39.86588,-18.62074 -39.86588,-44.9897c0,-26.24399 17.62097,-44.9897 42.61525,-44.9897z" fill="#ffffff" stroke-linecap="round" stroke-linejoin="round"/></g></g></svg>